<?xml version="1.0" standalone="no"?>
<!DOCTYPE svg PUBLIC "-//W3C//DTD SVG 20010904//EN"
 "http://www.w3.org/TR/2001/REC-SVG-20010904/DTD/svg10.dtd">
<svg version="1.0" xmlns="http://www.w3.org/2000/svg"
 width="275.000000pt" height="183.000000pt" viewBox="0 0 275.000000 183.000000"
 preserveAspectRatio="xMidYMid meet">

<g transform="translate(0.000000,183.000000) scale(0.100000,-0.100000)"
fill="#000000" stroke="none">
<path d="M0 915 l0 -915 595 0 c548 1 595 2 606 18 10 16 10 16 5 0 -4 -15 1
-18 30 -18 25 0 33 4 28 13 -6 9 -4 9 7 -1 15 -14 79 -17 79 -3 0 5 11 11 25
13 28 6 35 -8 8 -15 -10 -2 294 -5 675 -6 l692 -2 0 916 0 915 -1375 0 -1375
0 0 -915z m1892 775 l60 -64 -4 -68 c-3 -57 -8 -72 -31 -96 -15 -15 -27 -32
-27 -38 -1 -28 -83 -58 -153 -56 -47 2 -107 27 -107 44 0 7 -10 18 -22 23 -13
6 -27 24 -33 40 -5 17 -14 33 -19 36 -5 4 -5 36 -1 73 5 52 10 66 23 67 11 0
12 2 5 6 -7 2 -13 12 -12 21 0 11 2 12 6 5 2 -7 9 -13 14 -13 6 0 8 4 5 8 -7
12 5 26 45 53 31 20 48 24 113 23 l77 0 61 -64z m-412 40 c0 -5 -4 -10 -10
-10 -5 0 -10 5 -10 10 0 6 5 10 10 10 6 0 10 -4 10 -10z m115 0 c3 -5 1 -10
-4 -10 -6 0 -11 5 -11 10 0 6 2 10 4 10 3 0 8 -4 11 -10z m-1095 -80 c0 -5 -4
-10 -10 -10 -5 0 -10 5 -10 10 0 6 5 10 10 10 6 0 10 -4 10 -10z m1770 0 c0
-5 -4 -10 -10 -10 -5 0 -10 5 -10 10 0 6 5 10 10 10 6 0 10 -4 10 -10z m-1085
-100 c-3 -5 -13 -10 -21 -10 -8 0 -12 5 -9 10 3 6 13 10 21 10 8 0 12 -4 9
-10z m295 -84 c0 -2 -7 -7 -16 -10 -8 -3 -12 -2 -9 4 6 10 25 14 25 6z m-420
-225 c0 -5 -7 -11 -14 -14 -10 -4 -13 -1 -9 9 6 15 23 19 23 5z m294 -53 c-3
-4 -12 -8 -20 -8 -8 0 -13 4 -10 8 3 5 12 9 20 9 8 0 13 -4 10 -9z m-304 -328
c0 -5 -4 -10 -10 -10 -5 0 -10 5 -10 10 0 6 5 10 10 10 6 0 10 -4 10 -10z
m300 -124 c0 -2 -7 -7 -16 -10 -8 -3 -12 -2 -9 4 6 10 25 14 25 6z m257 -10
c-5 -12 3 -14 41 -12 26 2 52 0 57 -5 6 -4 31 -10 55 -12 25 -2 9 -3 -35 -2
-46 1 -71 -1 -60 -6 11 -4 43 -8 70 -9 63 -2 33 -18 -35 -19 -35 -1 -42 -4
-30 -12 11 -8 4 -9 -25 -3 -22 4 -55 7 -73 6 -26 -1 -32 2 -28 14 3 9 2 12 -5
9 -14 -10 -59 3 -59 16 0 7 12 9 33 5 28 -5 30 -4 15 8 -10 7 -18 17 -18 21 0
4 6 2 13 -4 8 -6 17 -8 20 -4 4 3 7 0 7 -7 0 -11 3 -11 12 -2 9 9 15 7 25 -6
13 -15 13 -15 4 5 -15 29 -14 33 5 33 10 0 14 -6 11 -14z m-162 -16 c-3 -5
-16 -10 -28 -9 -20 1 -20 2 3 9 14 4 26 8 28 9 2 1 0 -3 -3 -9z m425 -4 c0 -2
-7 -6 -15 -10 -8 -3 -15 -1 -15 4 0 6 7 10 15 10 8 0 15 -2 15 -4z m-430 -20
c0 -2 -7 -7 -16 -10 -8 -3 -12 -2 -9 4 6 10 25 14 25 6z m477 -2 c-3 -3 -12
-4 -19 -1 -8 3 -5 6 6 6 11 1 17 -2 13 -5z m-107 -184 c0 -5 -2 -10 -4 -10 -3
0 -8 5 -11 10 -3 6 -1 10 4 10 6 0 11 -4 11 -10z m83 -3 c3 -9 -5 -11 -32 -8
l-36 5 30 7 c17 4 31 7 31 8 1 0 4 -5 7 -12z m-48 -27 c-3 -5 -14 -10 -23 -9
-14 0 -13 2 3 9 27 11 27 11 20 0z m-145 -18 c3 -2 -1 -7 -8 -9 -6 -3 -10 -10
-6 -16 3 -7 0 -5 -8 4 -7 8 -22 21 -33 28 -17 10 -15 11 15 5 19 -3 37 -9 40
-12z m82 -7 c41 -6 49 -15 12 -15 -17 0 -39 7 -50 16 -10 8 -13 13 -6 9 7 -4
27 -8 44 -10z m95 9 c-3 -3 -12 -4 -19 -1 -8 3 -5 6 6 6 11 1 17 -2 13 -5z
m-262 -40 c9 3 13 2 10 -3 -3 -5 -1 -12 5 -16 6 -4 8 -10 5 -15 -3 -5 9 -17
27 -26 18 -9 30 -13 26 -9 -13 14 12 33 35 27 22 -6 22 -6 -3 -13 -22 -7 -20
-7 10 -7 19 1 45 -2 57 -6 15 -5 24 -2 32 11 9 17 11 17 28 0 17 -17 17 -18 0
-11 -9 3 -23 1 -31 -5 -9 -8 -21 -8 -40 -1 -14 5 -26 7 -26 5 0 -3 11 -10 25
-15 14 -5 25 -14 25 -20 0 -7 -6 -8 -17 -2 -10 6 -39 10 -65 10 -39 1 -48 -2
-48 -16 0 -10 -3 -13 -8 -6 -4 6 -29 11 -57 12 -27 1 -74 2 -102 3 -56 1 -74
13 -23 15 17 1 39 9 49 18 11 10 29 16 43 13 20 -4 20 -4 -5 -6 -16 0 -26 -5
-22 -11 3 -6 15 -6 29 0 13 5 27 6 32 2 4 -4 4 -1 0 6 -4 6 -2 12 3 12 6 0 11
7 11 15 0 18 -11 19 -30 3 -13 -11 -13 -11 -2 2 10 12 7 18 -15 38 l-28 23 27
-17 c16 -9 35 -14 43 -10z m255 9 c-8 -2 -21 -7 -29 -9 -11 -4 -11 -7 0 -22
13 -16 12 -16 -4 -3 -11 9 -21 11 -25 5 -4 -5 -18 -10 -32 -12 -23 -2 -23 -1
5 12 17 8 26 15 20 16 -18 3 29 19 55 19 14 -1 18 -3 10 -6z m15 -31 c-3 -3
-11 0 -18 7 -9 10 -8 11 6 5 10 -3 15 -9 12 -12z m-148 1 c-10 -9 -57 -10 -57
-1 0 4 14 8 32 8 17 0 28 -3 25 -7z m148 -43 c-3 -5 -1 -10 6 -10 7 0 10 -3 6
-6 -9 -9 -28 6 -22 17 4 5 8 9 11 9 3 0 2 -4 -1 -10z m15 -34 c0 -2 -7 -7 -16
-10 -8 -3 -12 -2 -9 4 6 10 25 14 25 6z m-552 -51 c-3 -3 -9 2 -12 12 -6 14
-5 15 5 6 7 -7 10 -15 7 -18z m222 -6 c0 -5 -12 -8 -27 -8 -17 1 -21 3 -10 6
9 2 17 9 17 14 0 6 5 7 10 4 6 -3 10 -10 10 -16z m93 -2 c4 -10 -2 -13 -21 -9
-24 5 -25 6 -7 13 11 4 21 8 21 8 1 1 4 -5 7 -12z m-68 -7 c-3 -6 5 -14 19
-20 14 -5 26 -17 26 -27 0 -13 3 -14 12 -5 17 17 28 15 28 -4 0 -8 5 -12 10
-9 6 3 10 4 10 1 0 -13 -67 -36 -91 -31 -19 4 -30 1 -36 -9 -6 -12 -16 -13
-38 -7 l-30 8 50 23 50 23 -40 14 c-43 15 -135 9 -135 -9 0 -5 -4 -6 -10 -3
-5 3 -10 2 -10 -4 0 -5 6 -12 13 -15 6 -3 1 -4 -12 -3 -39 3 -35 23 9 37 22 7
40 16 40 19 0 3 23 6 50 7 28 0 56 6 62 12 15 15 32 16 23 2z m-300 -10 c-3
-5 -11 -10 -16 -10 -6 0 -7 5 -4 10 3 6 11 10 16 10 6 0 7 -4 4 -10z m75 -40
c0 -5 -14 -7 -32 -3 -46 8 -48 13 -5 13 21 0 37 -4 37 -10z m380 -4 c8 0 26 4
40 8 22 8 23 7 8 -8 -20 -20 -55 -20 -88 0 l-25 15 25 -7 c14 -4 32 -8 40 -8z
m-260 -6 c0 -5 -2 -10 -4 -10 -3 0 -8 5 -11 10 -3 6 -1 10 4 10 6 0 11 -4 11
-10z m375 -10 c3 -5 1 -10 -4 -10 -6 0 -11 5 -11 10 0 6 2 10 4 10 3 0 8 -4
11 -10z m-130 -20 c-3 -5 -12 -10 -18 -10 -7 0 -6 4 3 10 19 12 23 12 15 0z
m-435 -5 c0 -2 -10 -9 -22 -15 -22 -11 -22 -10 -4 4 21 17 26 19 26 11z m175
-5 c-28 -12 -47 -12 -40 0 3 6 18 10 33 9 24 0 25 -1 7 -9z m168 -17 c-7 -2
-19 -2 -25 0 -7 3 -2 5 12 5 14 0 19 -2 13 -5z m-203 -18 c11 -13 8 -15 -14
-15 -14 0 -26 5 -26 11 0 5 5 7 10 4 6 -3 10 -1 10 4 0 15 5 14 20 -4z m80 11
c0 -2 -7 -6 -15 -10 -8 -3 -15 -1 -15 4 0 6 7 10 15 10 8 0 15 -2 15 -4z
m-330 -26 c-6 -11 -8 -25 -5 -30 3 -6 -1 -7 -10 -4 -26 10 -11 45 23 53 1 1
-2 -8 -8 -19z m-205 0 c3 -6 -1 -7 -9 -4 -18 7 -21 14 -7 14 6 0 13 -4 16 -10z
m280 -9 c3 -6 -3 -9 -14 -8 -11 0 -17 5 -15 9 7 11 22 10 29 -1z m285 5 c0 -2
-9 -6 -20 -9 -11 -3 -18 -1 -14 4 5 9 34 13 34 5z m-560 -26 c0 -5 -2 -10 -4
-10 -3 0 -8 5 -11 10 -3 6 -1 10 4 10 6 0 11 -4 11 -10z m465 4 c13 -5 14 -8
3 -15 -19 -13 -28 -11 -28 6 0 17 2 18 25 9z m-493 -19 c0 -5 -5 -11 -11 -13
-6 -2 -11 4 -11 13 0 9 5 15 11 13 6 -2 11 -8 11 -13z m448 -5 c0 -5 -7 -10
-16 -10 -8 0 -12 5 -9 10 3 6 10 10 16 10 5 0 9 -4 9 -10z"/>
<path d="M1608 673 c7 -3 16 -2 19 1 4 3 -2 6 -13 5 -11 0 -14 -3 -6 -6z"/>
<path d="M1548 223 c7 -3 16 -2 19 1 4 3 -2 6 -13 5 -11 0 -14 -3 -6 -6z"/>
</g>
</svg>
